<svg width="360" height="204" viewBox="0 0 360 204" fill="none" xmlns="http://www.w3.org/2000/svg">
<g clip-path="url(#clip0)">
<path opacity="0.8" d="M369 -37H-101.6V217.7H369V-37Z" fill="#E2E2E2"/>
<path d="M-59.1 39.7V106.6H10.5C24 106.6 36.9 101.2 46.4 91.7L64 74.0999C73.5 64.5999 86.4 59.2 99.9 59.2H367.8C381.3 59.2 394.2 53.7999 403.7 44.2999L408.9 -41.3H-59.1C-59.1 -41.3 -59.1 39.7 -59.1 39.7Z" fill="white"/>
<path d="M254.2 198.9H105.8V109.2C105.8 103.7 110.3 99.2 115.8 99.2H244.2C249.7 99.2 254.2 103.7 254.2 109.2V198.9Z" fill="white"/>
<path d="M201.8 51.3001C203.733 51.3001 205.3 46.9573 205.3 41.6001C205.3 36.243 203.733 31.9001 201.8 31.9001C199.867 31.9001 198.3 36.243 198.3 41.6001C198.3 46.9573 199.867 51.3001 201.8 51.3001Z" fill="#333333"/>
<path d="M157.2 51.3001C159.133 51.3001 160.7 46.9573 160.7 41.6001C160.7 36.243 159.133 31.9001 157.2 31.9001C155.267 31.9001 153.7 36.243 153.7 41.6001C153.7 46.9573 155.267 51.3001 157.2 51.3001Z" fill="#333333"/>
<path d="M165.5 60.2C160.7 61.2 156 58.2 154.9 53.4L154 49C153.5 46.6 155 44.2 157.4 43.7C159.8 43.2 162.2 44.7 162.7 47.1L165.5 60.2Z" fill="#F7BFA5"/>
<path d="M161.5 51.8002C161.1 52.5002 160.5 53.6002 160.8 54.5002C161.1 55.4002 162.9 56.0002 162.1 57.1002C161.2 58.4002 160.7 56.4002 160.2 56.0002C159.3 55.2002 158.1 55.6002 157.1 54.9002C155.5 53.8002 155.5 50.3002 155.3 48.6002C155.2 47.4002 155 46.5002 156.2 46.0002C157.7 45.3002 157.9 46.4002 158.2 47.4002C158.5 48.5002 158.4 49.5002 159.4 50.3002C160.3 51.0002 161.8 51.0002 161.5 51.8002Z" fill="#F19164"/>
<path d="M194.5 60.2C199.3 61.2 204 58.2 205.1 53.4L206 49C206.5 46.6 205 44.2 202.6 43.7C200.2 43.2 197.8 44.7 197.3 47.1L194.5 60.2Z" fill="#F7BFA5"/>
<path d="M197.5 51.8002C197.9 52.5002 198.5 53.6002 198.2 54.5002C197.9 55.4002 196.1 56.0002 196.9 57.1002C197.8 58.4002 198.3 56.4002 198.8 56.0002C199.7 55.2002 200.9 55.6002 201.9 54.9002C203.5 53.8002 203.5 50.3002 203.7 48.6002C203.8 47.4002 204 46.5002 202.8 46.0002C201.3 45.3002 201.1 46.4002 200.8 47.4002C200.5 48.5002 200.6 49.5002 199.6 50.3002C198.7 51.0002 197.2 51.0002 197.5 51.8002Z" fill="#F19164"/>
<path d="M194.9 67.3H165.1V99.9H194.9V67.3Z" fill="#F7BFA5"/>
<path d="M168.5 67.3L168.8 70.4C169.1 73.8 170.5 77 172.7 79.7L180.1 88.6C181.2 89.9 182.8 90.7 184.5 90.7H184.7C188.7 90.7 192.4 88.9 194.9 85.9V67.3H168.5Z" fill="#F19164"/>
<path d="M181.9 83.1H178.1C176.4 83.1 174.8 82.3 173.7 81L165.3 72.1C163.1 69.5 161.8 66.2 161.4 62.8L159.8 36.8C158.6 24.9 168 14.5 180 14.5C192 14.5 201.4 24.9 200.2 36.8L198.6 62.8C198.3 66.2 196.9 69.4 194.7 72.1L186.3 81C185.2 82.3 183.6 83.1 181.9 83.1Z" fill="#F7BFA5"/>
<path d="M180 99.8001L155.9 93.4001C148.7 95.5001 141.4 98.2001 134 101.5V192.3H180V99.8001Z" fill="#B45427"/>
<path d="M120.2 108.2C114.6 111.1 110.5 116.3 108.8 122.4L94.3 174.6C91.8 183.5 98.5 192.4 107.8 192.4H134V101.6C129.5 103.5 124.9 105.7 120.2 108.2Z" fill="#B45427"/>
<path d="M180 99.8001L204.1 93.4001C211.3 95.5001 218.6 98.2001 226 101.5V192.3H180V99.8001Z" fill="#B45427"/>
<path d="M239.8 108.2C245.4 111.1 249.5 116.3 251.2 122.4L265.7 174.6C268.2 183.5 261.5 192.4 252.2 192.4H226V101.6C230.5 103.5 235.1 105.7 239.8 108.2Z" fill="#B45427"/>
<path d="M189.1 192.3H170.9L172.3 135.9C172.4 130.5 173.2 125.1 174.6 119.8L177.2 110.2H182.8L185.4 119.9C186.8 125.1 187.6 130.5 187.7 135.9L189.1 192.3Z" fill="white"/>
<path d="M161.8 52.5L160.9 41.0999L163.2 37.2999L162.5 32.7999C162.1 29.9999 163.1 27.1 165.2 25.2L169.3 21.5L159.8 17.7C158 18.9 152 21.4999 151.6 23.7999C151.5 24.5999 151.7 25.3 151.9 26.1C152.8 29.8 152.7 33.5999 153.6 37.2999C153.9 38.5999 155 40.3999 155 41.5999C156.5 45.5999 158.8 49.3 161.7 52.4L161.8 52.5Z" fill="#333333"/>
<path d="M198.6 52.5L201.8 44.5C203.4 43.6 204.4 41.8999 204.4 40.0999V38.5999L206.1 40.7V34.7999C206.1 31.4999 205.6 28.2 204.6 25L204.5 24.7L203.7 17.7L195 22.5L197.1 29.4C197.9 32.1999 198 35.1 197.3 38L198.9 41.5L198.6 52.5Z" fill="#333333"/>
<path d="M159.7 17.6001C161.3 14.5001 162.4 10.4001 165.9 9.20007C171.8 7.20007 178.3 6.10007 184.5 7.90007C187 8.60007 189.1 9.90007 191.5 11.0001C194.5 12.3001 197.6 13.3001 200.3 15.2001L203.6 17.6001L201.8 24.2001L183.6 21.4001H162.3H159.7C159.7 21.4001 159.7 17.6001 159.7 17.6001Z" fill="#333333"/>
<path d="M170.2 46.4001C169.3 46.4001 168.5 47.2001 168.5 48.1001C168.5 48.6001 168.7 49.0001 169 49.3001H171.4C171.7 49.0001 171.9 48.6001 171.9 48.1001C171.9 47.2001 171.2 46.4001 170.2 46.4001Z" fill="#333333"/>
<path d="M165.7 48.9002C165.7 48.9002 168.9 44.7002 174 47.6002V46.2002C174 46.2002 169.8 43.5002 165.6 47.9002L165.7 48.9002Z" fill="#333333"/>
<path d="M174.5 42.9001L173.2 43.1C171.9 43.3 170.5 43.4 169.2 43.3C168.3 43.2 167.3 43.2 166.4 43.3L164.8 43.5C163.9 43.6 163.5 42.8001 164.1 42.4001L165.6 41.5C166.2 41.2 166.9 40.9001 167.6 40.9001L169.1 40.8C169.7 40.8 170.2 40.8001 170.8 40.9001L171.9 41.1C172.4 41.2 172.8 41.4 173.2 41.6C173.9 41.9 174.3 42.4001 174.5 42.9001C174.6 42.9001 174.6 42.9001 174.5 42.9001Z" fill="#333333"/>
<path d="M183 72.6001H177C177.3 73.4001 178 73.9001 178.8 73.9001C180 73.9001 181.7 74.1001 182.4 74.9001L183 72.6001Z" fill="#F19164"/>
<path d="M178.2 60.4C178.1 60.2 177.9 59.9 177.7 59.8C177.4 59.6 177.2 59.5 176.8 59.6C176.5 59.7 176.1 59.8 175.8 59.9C175.2 60.2 174.7 60.7 175.7 60.8C176.3 60.8 176.8 60.6 177.4 60.7C177.6 60.7 177.9 60.7 178.2 60.4Z" fill="#F19164"/>
<path d="M189.8 46.4001C190.7 46.4001 191.5 47.2001 191.5 48.1001C191.5 48.6001 191.3 49.0001 191 49.3001H188.6C188.3 49.0001 188.1 48.6001 188.1 48.1001C188.1 47.2001 188.8 46.4001 189.8 46.4001Z" fill="#333333"/>
<path d="M194.3 48.9002C194.3 48.9002 191.1 44.7002 186 47.6002V46.2002C186 46.2002 190.2 43.5002 194.4 47.9002L194.3 48.9002Z" fill="#333333"/>
<path d="M185.5 42.9001L186.8 43.1C188.1 43.3 189.5 43.4 190.8 43.3C191.7 43.2 192.7 43.2 193.6 43.3L195.2 43.5C196.1 43.6 196.5 42.8001 195.9 42.4001L194.4 41.5C193.8 41.2 193.1 40.9001 192.4 40.9001L190.9 40.8C190.3 40.8 189.8 40.8001 189.2 40.9001L188.1 41.1C187.6 41.2 187.2 41.4 186.8 41.6C186.1 41.9 185.7 42.4001 185.5 42.9001C185.4 42.9001 185.4 42.9001 185.5 42.9001Z" fill="#333333"/>
<path d="M187.1 67.4001L186.6 68.0001C183.5 71.4001 178.7 71.1001 175.1 69.1001C174.7 68.8001 174.2 68.6001 173.9 68.2001C173.7 68.0001 173.3 67.5001 173 67.4001C172.9 67.4001 187.1 67.4001 187.1 67.4001Z" fill="#F7BFA5"/>
<path d="M181.9 60.4C182.1 60.1 182.5 59.5 182.8 59.5C183.5 59.5 184.8 59.8 185 60.6C184.6 60.8 184.2 60.8 183.7 60.7C183.2 60.6 182.5 60.9 181.9 60.4C181.9 60.5 181.9 60.5 181.9 60.4Z" fill="#F19164"/>
<path d="M165.1 83.1001C165.1 83.1001 165.5 94.4001 180 99.8001L165.1 115.4C165.1 115.4 157.9 104.1 155.9 93.4001L165.1 83.1001Z" fill="#5F2C14"/>
<path d="M194.9 83.1001C194.9 83.1001 194.5 94.4001 180 99.8001L194.9 115.4C194.9 115.4 202.1 104.1 204.1 93.4001L194.9 83.1001Z" fill="#5F2C14"/>
<path d="M164 22.4C164 22.4 174.6 29.3 187 29.3C187 29.3 182 27.2 182 24.6C182 24.6 191 29.8 199.8 30.9L201.7 24.4L187.7 12.3H168L159.8 21.6L164 22.4Z" fill="#333333"/>
<path d="M178.6 114L175.1 110.5C174.3 109.7 174.3 108.5 175.1 107.7L178.6 104.2C179.4 103.4 180.6 103.4 181.4 104.2L184.9 107.7C185.7 108.5 185.7 109.7 184.9 110.5L181.4 114C180.6 114.7 179.4 114.7 178.6 114Z" fill="white"/>
<path d="M186.8 67.1C186.5 67.4 186.1 67.6 185.7 67.7C185.1 67.8 184.4 67.8 183.6 67.7L182.3 67.6C181.5 67.6 180.8 67.6 180.2 67.7H180H179.8C179.2 67.6 178.3 67.4 177.7 67.6L176.4 67.7C175.9 67.8 175.3 67.8 174.7 67.7C174 67.6 173.4 67.3 173 66.8C172.7 66.4 172.4 66 172.6 66.1C173.4 66.4 173.2 66.6 173.7 66.6L175.4 66.5C176.9 66.2 178.4 66.2 179.8 66.4H180H180.2C181.5 66.2 182.8 66.1 184.1 66.4C184.5 66.5 184.9 66.5 185.2 66.5L186.3 66.4C186.9 66.3 186.9 66.3 187.4 66.1C187.7 66.1 187.2 66.7 186.8 67.1Z" fill="#F19164"/>
<path d="M112.9 194.8L131.6 143.8C133 139.9 136.8 137.2 141 137.2H220.1C223.7 137.2 227.1 139.2 228.8 142.3L257.1 193.2L112.9 194.8Z" fill="#5F2C14"/>
<path d="M105.2 199C115.086 199 123.1 190.986 123.1 181.1C123.1 171.214 115.086 163.2 105.2 163.2C95.3141 163.2 87.3 171.214 87.3 181.1C87.3 190.986 95.3141 199 105.2 199Z" fill="#5F2C14"/>
<path d="M102.2 199C112.086 199 120.1 190.986 120.1 181.1C120.1 171.214 112.086 163.2 102.2 163.2C92.3141 163.2 84.3 171.214 84.3 181.1C84.3 190.986 92.3141 199 102.2 199Z" fill="#B45427"/>
<path d="M259.2 199C269.086 199 277.1 190.986 277.1 181.1C277.1 171.214 269.086 163.2 259.2 163.2C249.314 163.2 241.3 171.214 241.3 181.1C241.3 190.986 249.314 199 259.2 199Z" fill="#B45427"/>
<path d="M240 166L229.6 170.9C229 171.2 228.5 171.6 228.1 172.1C227.3 173.1 225.8 174.9 223.8 175.9C223.2 176.2 223.1 177 223.5 177.5L223.9 178C224.3 178.5 224.9 178.7 225.6 178.7H225.7C227.9 178.5 230 177.6 231.6 176.2L231.9 175.9L236.9 175.2L240 166Z" fill="#F7BFA5"/>
<path d="M239.2 168.3C238.9 168.4 238.6 168.7 238.5 169L237 172.1C236.3 173.6 236.3 175.3 237.1 176.7L237.4 177.3C238 178.3 238.9 179.1 240 179.5L247.4 182.3C248.1 182.6 248.8 183 249.3 183.6C248.3 185.7 250.7 187.8 252.6 186.5L261.2 180.6L248.1 169.8L241 169.3C240.8 168.4 239.9 168 239.2 168.3Z" fill="#F19164"/>
<path d="M257.8 173.2L256.6 172.6C256.4 172.5 256.1 172.3 256 172.1L253.5 169.2C253.3 169 253.1 168.8 252.9 168.7L252.1 168.3C251.9 168.2 251.6 168.1 251.4 168.1L249.4 167.9C249.1 167.9 248.9 167.8 248.6 167.7L248 167.3C247.8 167.2 247.6 167 247.4 166.8L246.5 165.7C246.3 165.5 246.1 165.3 245.8 165.2L245.5 165C245.1 164.8 244.6 164.7 244.1 164.9L240 166L238.8 168.5C239.5 168.2 240.3 168.4 240.8 168.9C241.3 169.4 241.9 169.7 242.6 169.7H248.3L261.4 180.5L259 174.2C258.6 173.8 258.3 173.4 257.8 173.2Z" fill="#F7BFA5"/>
<path d="M251.7 190.8C252 191.1 252.4 191.2 252.8 190.9L257.8 187.7C258.3 187.4 258.6 187 258.8 186.5L261.2 180.6L259.3 177.9L252 188.3C251.6 188.9 251.4 189.7 251.5 190.4C251.5 190.5 251.6 190.7 251.7 190.8Z" fill="#F7BFA5"/>
<path d="M251.5 190.3C251.5 190.5 251.6 190.6 251.7 190.8C252 191.1 252.4 191.2 252.8 190.9L257.8 187.7C258.3 187.4 258.6 187 258.8 186.5L261.2 180.6C260.3 182.2 259.4 183.8 258.5 185.3C258.2 185.9 258 186.4 257.5 186.9C257 187.3 256.4 187.6 255.9 187.9C255.3 188.2 254.8 188.6 254.2 188.9C253.7 189.2 253 189.9 252.3 189.8C252.1 189.8 251.4 189.2 251.5 188.9C251.5 189.4 251.4 189.9 251.5 190.3Z" fill="#F19164"/>
<path d="M249.5 191.6L255.9 185.7L259.4 177.9L257.5 174L256.8 173.6L254.3 173.1L247.3 189.6C247.2 189.8 247.2 190 247.2 190.2V190.6C247.2 191.2 247.6 191.7 248.2 191.8C248.6 192.1 249.1 191.9 249.5 191.6Z" fill="#F7BFA5"/>
<path d="M247.1 190.2C247.1 190.5 247.1 190.7 247.2 191C247.3 191.4 247.7 191.8 248.1 191.9C248.6 192 249.1 191.9 249.4 191.6L255.8 185.7L259.3 177.9L255.1 185L249.9 190.2C249.5 190.6 249 190.7 248.5 190.5C248.3 190.4 248.1 190.3 247.9 190.1L247.4 189.4L247.2 189.8C247.2 189.8 247.1 190 247.1 190.2Z" fill="#F19164"/>
<path d="M247.7 189L251.6 182.7L254.2 173.2L252.2 170L250.9 169.4H248.4L247.2 178.8L244.4 186.1C244.1 187.5 244.7 188.9 246 189.5C246.7 189.7 247.4 189.5 247.7 189Z" fill="#F7BFA5"/>
<path d="M246.1 189.4C246.7 189.7 247.4 189.5 247.7 188.9L250.9 183.8C251.4 183 251.8 182.1 252.1 181.1L253.9 174.5V174.3L251.2 180.4L247.6 187.4C247.4 187.9 246.9 188.2 246.4 188.3C245.7 188.4 245 188.1 244.7 187.5C244.8 188.4 245.3 189 246.1 189.4Z" fill="#F19164"/>
<path d="M242.5 169.5L241.5 178.4L240.4 181.5C240.1 182.9 240.7 184.3 241.8 184.9C242 185 242.3 185.1 242.5 185C243 184.9 243.5 184.5 243.8 184L246.4 177.9L248.5 168.9L245.6 168.2L242.5 169.5Z" fill="#F7BFA5"/>
<path d="M225.6 178.7C227.9 178.5 229.9 177.6 231.6 176.2L231.9 175.9L236.9 175.2L238.7 169.8L238.5 169L231.6 174L229.7 172.8L230.4 174.7L229.2 176C228.5 176.7 227.6 177.3 226.6 177.6C225.8 177.8 225 177.9 224.2 177.7L223.7 177.6L224.1 178.1C224.4 178.5 225 178.7 225.6 178.7Z" fill="#F19164"/>
<path d="M232.4 125.6H127.6C125.9 125.6 124.5 127 124.5 128.7V193.3H235.6V128.7C235.6 126.9 234.2 125.6 232.4 125.6Z" fill="white"/>
<path d="M303.2 192.5H312C318 192.5 322.8 187.6 322.8 181.7V168.2H292.3V181.7C292.4 187.6 297.2 192.5 303.2 192.5Z" fill="#AE3729"/>
<path d="M292.6 187.5C290 187.5 287.6 185.8 286.9 183.2L285.3 177.5C284.9 176.2 285.1 174.9 285.7 173.8C286.3 172.7 287.4 171.8 288.6 171.5C291.2 170.8 293.9 172.3 294.6 174.9L297.8 186.3L294.1 187.4C293.7 187.5 293.1 187.5 292.6 187.5ZM290 173.3C289.7 173.3 289.5 173.3 289.2 173.4C288.4 173.6 287.8 174.1 287.4 174.8C287 175.5 286.9 176.3 287.1 177L288.7 182.7C289 183.7 289.7 184.6 290.6 185.1C291.5 185.6 292.6 185.7 293.6 185.5L295.4 185L292.7 175.5C292.4 174.1 291.3 173.3 290 173.3Z" fill="#D44333"/>
<path d="M299.5 168.2V191.8C295.3 190.3 292.4 186.3 292.4 181.6V168.1L299.5 168.2Z" fill="#D44333"/>
<path d="M101.3 170.6L110 178.1C110.5 178.5 110.9 179.1 111.1 179.7C111.6 180.9 112.6 183 114.2 184.5C114.7 185 114.6 185.7 114 186.1L113.5 186.4C113 186.7 112.3 186.8 111.7 186.6H111.6C109.5 185.8 107.8 184.4 106.6 182.6L106.4 182.3L101.8 180.3L101.3 170.6Z" fill="#F7BFA5"/>
<path d="M111.7 186.6C109.6 185.8 107.8 184.4 106.6 182.6L106.4 182.3L101.8 180.3L101.5 174.6L101.9 173.9L107.2 180.5L109.4 179.8L108.2 181.5L109 183.1C109.5 184 110.2 184.8 111.1 185.3C111.8 185.7 112.6 186 113.4 186.1L113.9 186.2L113.4 186.5C113 186.8 112.3 186.8 111.7 186.6Z" fill="#F19164"/>
<path d="M101.4 173C101.7 173.2 101.8 173.5 101.9 173.8L102.5 177.2C102.8 178.8 102.3 180.5 101.1 181.6L100.6 182.1C99.8 182.9 98.7 183.4 97.6 183.5L89.7 184.2C88.9 184.3 88.2 184.5 87.5 184.9C87.9 187.2 85.1 188.5 83.6 186.8L77.8 178.4L92.4 171.9L99.4 173.3C99.8 172.6 100.8 172.5 101.4 173Z" fill="#F19164"/>
<path d="M82.2 172.6L83.5 172.4C83.8 172.3 84 172.2 84.3 172.1L87.4 170C87.6 169.8 87.9 169.7 88.2 169.7L89.1 169.5C89.3 169.5 89.6 169.5 89.8 169.5L91.7 169.8C92 169.8 92.3 169.8 92.5 169.8L93.2 169.6C93.4 169.5 93.7 169.4 93.9 169.3L95 168.5C95.2 168.3 95.5 168.2 95.8 168.2L96.1 168.1C96.6 168 97.1 168.1 97.5 168.3L101.3 170.5L101.8 173.2C101.2 172.7 100.4 172.7 99.8 173C99.2 173.3 98.5 173.5 97.9 173.3L92.4 171.8L77.8 178.3L80.9 173.2C81.2 173 81.7 172.7 82.2 172.6Z" fill="#F7BFA5"/>
<path d="M77.1 191.2C76.7 191.2 76.4 190.9 76.3 190.5L75.5 184.6C75.4 184.1 75.5 183.5 75.8 183L77.8 178.5L89.8 173.2L79.9 183.4L78.8 189.4C78.6 190.1 78.1 190.7 77.5 191.1C77.4 191.1 77.3 191.2 77.1 191.2Z" fill="#F7BFA5"/>
<path d="M77.6001 191C78.2001 190.6 78.7001 190 78.9001 189.3L80.0001 183.3L81.4001 181.9L80.8001 177.7L78.6001 182.8L79.5001 183.2H78.4001V188.4C78.4001 189.1 78.2001 189.8 77.8001 190.3L77.2001 191.1C77.3001 191.2 77.4001 191.1 77.6001 191Z" fill="#F19164"/>
<path d="M99.7 182C92 182 85.8 186.7 85.8 192.5H113.5C113.6 186.7 107.4 182 99.7 182Z" fill="white"/>
<path d="M85.2 192.6L80.7 185.2L79.4 176.7L82.3 173.5L83.1 173.3L85.6 173.5L87.9 191.3C87.9 191.5 87.9 191.7 87.8 191.9L87.7 192.3C87.5 192.8 87 193.2 86.4 193.2C86 193.3 85.5 193.1 85.2 192.6Z" fill="#F7BFA5"/>
<path d="M87.9 191.9C87.8 192.2 87.7 192.4 87.6 192.6C87.4 193 86.9 193.2 86.5 193.2C86 193.2 85.5 193 85.3 192.5L80.8 185.1L79.5 176.6L81.7 184.6L85.3 191C85.6 191.5 86 191.7 86.6 191.7C86.9 191.7 87.1 191.6 87.3 191.4L88 190.8V191.2C87.9 191.5 87.9 191.7 87.9 191.9Z" fill="#F19164"/>
<path d="M87.6 190.6L85.5 183.5L85.6 173.6L88.3 171.1L89.7 170.8L92.1 171.5L90.8 180.9L91.5 188.7C91.4 190.1 90.4 191.3 89 191.6C88.4 191.6 87.8 191.2 87.6 190.6Z" fill="#F7BFA5"/>
<path d="M89.1 191.4C88.5 191.5 87.9 191.1 87.7 190.5L86 184.8C85.7 183.9 85.6 182.9 85.6 181.9L85.7 175.1L85.8 174.9L86.8 181.6L88.3 189.3C88.4 189.8 88.7 190.3 89.2 190.5C89.8 190.8 90.6 190.7 91.1 190.1C90.6 190.8 89.9 191.3 89.1 191.4Z" fill="#F19164"/>
<path d="M97.9 173.2L96.5 182.1L96.7 185.4C96.6 186.9 95.7 188 94.5 188.3C94.3 188.4 94 188.3 93.8 188.2C93.3 188 92.9 187.5 92.9 186.9L92 180.3L92.4 171L95.4 171.1L97.9 173.2Z" fill="#F7BFA5"/>
<path d="M377.5 192.3H-101.9V204H377.5V192.3Z" fill="white"/>
</g>
<defs>
<clipPath id="clip0">
<rect width="360" height="204" fill="white"/>
</clipPath>
</defs>
</svg>
